HIERARCHY
ROOT hip
{
	OFFSET 0.000000 0.000000 0.000000 
	CHANNELS 6 Xposition Yposition Zposition Xrotation Zrotation Yrotation
	JOINT abdomen
	{
		OFFSET 0.000000 3.402643 0.000000 
		CHANNELS 3 Xrotation Zrotation Yrotation
		JOINT chest
		{
			OFFSET 0.000000 8.438565 -0.680529 
			CHANNELS 3 Xrotation Zrotation Yrotation
			JOINT neck
			{
				OFFSET 0.000000 10.207942 -0.272212 
				CHANNELS 3 Xrotation Zrotation Yrotation
				JOINT head
				{
					OFFSET 0.000000 3.130431 0.000000 
					CHANNELS 3 Xrotation Zrotation Yrotation
					End Site
					{
						OFFSET 0.000000 3.130435 0.000000 
					}
				}
			}
			JOINT lCollar
			{
				OFFSET 3.470700 6.669187 -0.816635 
				CHANNELS 3 Yrotation Zrotation Xrotation
				JOINT lShldr
				{
					OFFSET 3.198488 0.000000 0.000000 
					CHANNELS 3 Zrotation Yrotation Xrotation
					JOINT lForeArm
					{
						OFFSET 10.139888 0.000000 0.000000 
						CHANNELS 3 Yrotation Zrotation Xrotation
						JOINT lHand
						{
							OFFSET 8.370511 0.000000 0.000000 
							CHANNELS 3 Zrotation Yrotation Xrotation
							End Site
							{
								OFFSET 4.083176 0.000000 0.000000 
							}
						}
					}
				}
			}
			JOINT rCollar
			{
				OFFSET -3.470700 6.669187 -0.816635 
				CHANNELS 3 Yrotation Zrotation Xrotation
				JOINT rShldr
				{
					OFFSET -3.198488 0.000000 0.000000 
					CHANNELS 3 Zrotation Yrotation Xrotation
					JOINT rForeArm
					{
						OFFSET -10.139888 0.000000 0.000000 
						CHANNELS 3 Yrotation Zrotation Xrotation
						JOINT rHand
						{
							OFFSET -8.370511 0.000000 0.000000 
							CHANNELS 3 Zrotation Yrotation Xrotation
							End Site
							{
								OFFSET -4.083176 0.000000 0.000000 
							}
						}
					}
				}
			}
		}
	}
	JOINT lThigh
	{
		OFFSET 5.308129 -1.633274 1.361059 
		CHANNELS 3 Xrotation Zrotation Yrotation
		JOINT lShin
		{
			OFFSET -2.041588 -20.007561 0.000000 
			CHANNELS 3 Xrotation Zrotation Yrotation
			JOINT lFoot
			{
				OFFSET 0.000000 -19.190928 -1.224953 
				CHANNELS 3 Xrotation Yrotation Zrotation
				End Site
				{
					OFFSET 0.000000 -2.449906 4.627600 
				}
			}
		}
	}
	JOINT rThigh
	{
		OFFSET -5.308129 -1.633274 1.361059 
		CHANNELS 3 Xrotation Zrotation Yrotation
		JOINT rShin
		{
			OFFSET 2.041588 -20.007561 0.000000 
			CHANNELS 3 Xrotation Zrotation Yrotation
			JOINT rFoot
			{
				OFFSET 0.000000 -19.190928 -1.224953 
				CHANNELS 3 Xrotation Yrotation Zrotation
				End Site
				{
					OFFSET 0.000000 -2.449906 4.627600 
				}
			}
		}
	}
}
MOTION
Frames: 15
Frame Time: 0.033333
0.183460 4.631326 0.010439 0.478516 43.574215 93.004784 45.595703 -1.337891 3.632813 -6.894531 -1.708984 -0.947266 51.064453 8.115234 2.472081 -22.861328 0.576172 -2.939355 14.248048 30.000000 -3.950196 -54.013672 4.638672 52.031250 -106.425781 0.742188 -3.125119 49.765625 15.205078 20.793579 -9.638673 -30.000000 -1.337891 64.589844 -27.460939 48.564453 116.074219 -1.064453 -3.056641 -69.550781 -33.457031 45.624996 -71.192276 8.787496 2.660659 69.152824 -2.516142 -4.941302 18.302059 0.954597 -3.101430 -69.917671 -8.691391 6.364954 66.946312 1.514394 4.736558 25.416616 -9.183339 3.338239 
0.377680 4.639197 0.021361 -0.253906 42.343750 90.917969 46.484375 -2.158203 4.569945 -7.773438 -1.708984 -0.752244 51.064453 8.115234 2.472081 -24.257811 0.703125 -2.597537 14.218751 30.000000 -3.989258 -55.068356 3.437500 51.416603 -103.789063 0.625000 -2.959091 49.824219 14.326173 21.650393 -8.808594 -30.000000 -0.708006 66.845703 -28.378908 46.777344 113.085938 -0.947266 -3.056479 -69.296875 -32.050781 45.082710 -73.010605 9.891626 1.912612 70.169090 -2.076272 -4.877825 18.248058 1.212267 -3.727903 -71.631432 -7.265937 5.849652 67.105087 1.517321 4.412301 26.669136 -9.590888 2.187540 
0.581509 4.639197 0.032724 -0.712891 41.113285 88.935547 47.363285 -2.910156 5.312004 -8.662109 -1.552734 -0.517843 51.064453 8.115234 2.472081 -25.654297 0.839844 -2.294779 13.886719 30.000000 -3.745117 -56.474613 2.871094 50.107418 -101.328125 0.527344 -2.939538 49.677734 13.017578 21.917006 -8.291017 -30.000000 -0.380860 69.140625 -28.574219 43.735565 110.976563 -0.869141 -3.056493 -69.179688 -31.308594 44.535942 -75.027176 10.673466 0.637544 71.905235 -1.940444 -4.743573 17.710743 1.652883 -4.070021 -73.313995 -5.966737 4.847828 67.465919 1.289723 4.620564 26.775076 -10.204956 1.520718 
0.793798 4.654932 0.044458 -1.142578 39.541016 87.382813 48.066406 -3.466797 6.025390 -9.365235 -1.562500 -0.322266 51.064453 8.115234 2.472081 -27.226561 0.996094 -1.786940 13.173827 30.000000 -3.437500 -58.457035 4.199219 48.203125 -98.876953 0.234375 -3.076172 50.136723 11.445313 22.091782 -7.783204 -30.000000 -0.068359 71.328125 -28.066406 40.156254 109.218750 -0.800781 -3.046875 -69.238281 -31.210936 44.208984 -77.010147 11.416083 0.025522 73.163948 -2.001341 -4.890079 17.323250 1.804151 -4.521289 -75.211273 -5.058648 4.616292 68.352051 1.400898 4.783550 26.674709 -10.435265 1.242845 
1.013390 4.828278 0.056516 -1.132813 37.959076 87.066544 48.417969 -3.632813 6.054688 -9.716797 -1.562500 -0.312500 51.064453 8.115234 2.472081 -28.818357 0.996094 -1.699049 12.070312 30.000000 -2.656250 -61.035156 6.835937 45.468750 -96.601563 -0.029297 -3.193359 50.878906 10.117187 22.382811 -7.294922 -30.000000 0.224609 72.666016 -26.962891 37.070313 107.636719 -0.732422 -3.027219 -69.384766 -30.996096 43.569191 -79.169479 11.777611 -0.365703 74.393700 -1.903820 -4.951637 16.619883 2.019796 -4.582095 -77.122086 -4.394940 4.491309 69.388008 1.136930 4.692459 26.335524 -10.753229 0.940373 
1.239126 5.127641 0.068852 -0.664063 36.025391 87.929688 48.251953 -3.281250 5.526784 -9.716797 -1.562500 -0.488281 51.064453 8.115234 2.472081 -30.605467 0.830078 -1.503765 10.986328 29.999998 -1.923828 -63.710938 8.828125 42.656250 -94.677734 -0.292969 -3.320265 50.781250 9.296876 22.247675 -6.757813 -30.000000 0.585937 73.281250 -24.863283 35.000000 106.054688 -0.673828 -3.027229 -69.531250 -31.142576 43.017578 -81.266266 11.591598 0.016563 75.438766 -1.980172 -4.797989 16.298086 2.306545 -4.081042 -79.688400 -4.454104 5.764349 70.982597 1.350744 4.805007 25.873840 -11.134235 1.482077 
1.469866 5.466341 0.081419 0.000000 33.750000 89.814453 47.714840 -2.363281 4.746094 -9.365234 -1.728563 -0.879169 51.064453 8.115234 2.472081 -32.382813 0.664063 -1.464731 10.810547 30.000000 -1.904297 -65.546875 8.945313 40.294487 -93.261719 -0.166016 -3.154268 50.917969 9.521483 22.802732 -6.259766 -30.000000 0.898438 72.988281 -22.529297 33.912277 104.472656 -0.615234 -3.007813 -69.560547 -31.171877 42.114082 -83.492195 10.829623 1.054582 76.321724 -1.882231 -4.964114 16.484928 2.369052 -3.098114 -82.258057 -4.883359 7.152963 73.090881 1.136017 4.827516 25.102964 -10.952031 2.249679 
1.704449 5.805160 0.094147 0.605469 31.445313 91.943359 47.011719 -1.367188 3.320313 -9.013672 -1.718750 -1.416309 51.064453 8.115234 2.472081 -34.335938 0.507812 -1.220703 10.517579 30.000000 -1.665039 -67.080078 8.076172 38.349606 -92.041016 -0.214844 -3.134729 50.566406 10.019531 22.941154 -5.742187 -30.000000 1.225587 72.802734 -19.716797 32.919922 103.066406 -0.566406 -2.988185 -69.316406 -31.259768 41.005859 -85.703285 9.890989 2.251095 77.209534 -1.834009 -5.022767 16.197937 2.161534 -2.041264 -85.196724 -5.323345 8.612164 75.351669 1.116109 4.795272 24.200109 -11.140470 2.947607 
1.941716 6.159610 0.106992 1.201172 28.994143 93.925781 46.474613 -0.371094 2.353452 -8.652344 -1.894531 -1.816729 51.064453 8.115234 2.472081 -36.650387 0.371094 -1.181576 10.253906 30.000000 -1.445313 -68.232422 6.904297 36.075397 -90.810547 -0.263672 -3.105469 50.380859 10.654296 23.369141 -5.458984 -30.000000 1.469728 72.666016 -16.992189 31.728518 101.660156 -0.517578 -2.978516 -69.462891 -31.396484 40.453896 -87.700676 9.042486 3.874553 78.207138 -1.228344 -4.915285 15.631063 2.537153 -1.461625 -87.733353 -6.054258 9.374407 77.280846 0.576742 4.891242 23.091179 -10.973413 4.230660 
2.180522 6.514167 0.119918 1.357422 26.533205 95.009766 46.289063 0.224609 1.611367 -8.476563 -1.894531 -2.167969 51.064453 8.115234 2.472081 -39.130859 0.234375 -0.908202 10.058594 30.000000 -1.416016 -69.218750 5.332032 33.633724 -89.755859 -0.302734 -3.085886 50.371094 10.810548 23.283083 -4.941407 -30.000000 1.796875 72.880859 -14.736329 30.087889 100.087891 -0.273438 -3.124953 -69.550781 -31.376953 39.746094 -90.290573 8.642292 4.648043 79.444748 -1.277511 -5.090873 15.243854 2.755992 -0.747671 -90.809387 -6.259787 10.367439 79.026718 0.392696 4.875734 22.241776 -10.823291 4.315442 
2.419722 6.868724 0.132855 1.337891 23.896486 95.316460 46.289063 0.458984 1.406328 -8.828124 -2.070312 -2.197618 51.064453 8.115234 2.472081 -41.787109 0.117188 -0.634765 9.755859 30.000000 -1.157226 -70.322258 4.228516 30.518299 -88.359375 -0.537109 -3.017578 50.761715 10.058595 22.548828 -4.443359 -30.000000 2.114259 73.378906 -12.841797 28.025173 98.681641 -0.214844 -3.105432 -69.531250 -31.601561 38.798824 -93.123161 8.476323 4.492852 80.704369 -1.512314 -5.077240 14.495181 2.999842 -0.942727 -93.828781 -6.290383 10.884343 80.606537 0.236240 4.865374 21.258070 -10.611244 4.745977 
2.658146 7.231035 0.145758 1.308594 21.074219 95.419922 46.455078 0.712891 1.210938 -9.179688 -2.070313 -2.353515 51.064453 8.115234 2.472081 -44.960938 0.029297 -0.136714 9.238281 30.000000 -0.810547 -71.230469 3.242188 27.363281 -87.119141 -0.400391 -3.027276 51.318359 9.316406 21.388300 -3.935547 -30.000000 2.421875 73.808594 -11.005860 25.457119 97.285156 -0.175781 -3.076142 -69.414063 -31.796877 38.037109 -96.106796 8.456263 4.665435 81.904480 -1.404955 -5.100784 13.819032 2.867272 -0.730697 -97.033485 -6.124653 11.233429 82.018005 0.313698 4.842532 20.387562 -10.799439 4.567335 
2.894649 7.601330 0.158579 1.289063 18.085938 95.351563 46.640625 0.888672 1.172027 -9.707031 -2.080078 -2.333985 51.064453 8.115234 2.472081 -48.330078 -0.039063 0.185540 9.296875 30.000000 -0.893555 -71.748047 1.699219 24.169920 -85.898438 -0.625000 -2.958985 51.435547 9.238281 20.917969 -3.544922 -30.000000 2.500000 74.160156 -9.306641 23.025764 95.878906 -0.117188 -3.056641 -69.570313 -31.992189 38.012405 -99.089890 8.447409 4.964459 83.132790 -0.956974 -5.132110 13.053920 3.101781 -1.284766 -100.198563 -5.948442 11.345678 83.229050 -0.008509 4.863220 19.644627 -10.517186 4.938814 
3.128074 7.955890 0.171261 1.259766 15.273438 95.276009 46.992191 0.820313 1.338030 -10.234375 -2.080078 -2.314453 51.064453 8.115234 2.472081 -51.523438 -0.312500 0.517525 9.619140 30.000000 -1.103516 -71.992188 -0.517578 21.611324 -84.492188 -0.683594 -2.929571 51.210938 10.332031 20.997847 -3.232422 -30.000000 2.773438 74.462891 -7.646485 20.272141 94.472656 -0.058595 -3.037069 -69.492188 -32.324219 37.392578 -102.464821 8.651742 4.664516 84.367271 -1.004998 -5.129740 12.519018 3.065227 -0.861027 -103.555191 -5.617410 11.624443 84.454819 0.069511 4.839406 19.198971 -10.458750 4.532922 
3.357277 8.270988 0.183747 1.259766 12.460937 95.050934 47.343750 0.937500 1.464844 -10.761719 -2.265625 -2.500386 51.064453 8.115234 2.472081 -54.707027 -0.390625 0.908137 9.804688 30.000000 -1.054687 -72.119141 -3.085937 18.886719 -83.095703 -0.917969 -3.183594 51.328125 11.230469 21.582029 -2.724609 -30.000000 3.090822 74.736328 -5.781250 17.431639 92.890625 -0.009766 -3.017576 -69.599609 -32.363281 37.211567 -105.497093 8.681530 4.366232 85.413048 -0.927163 -5.358553 11.408826 3.184034 -1.246411 -106.726791 -5.449667 11.709254 85.855385 -0.243500 5.010763 17.966764 -10.296592 4.742633 
